<?xml version="1.0" encoding="UTF-8"?>
<svg id="Primary_Logo_Horizontal_1-Line" xmlns="http://www.w3.org/2000/svg" version="1.1" viewBox="0 0 395.6 74.8">
  <!-- Generator: Adobe Illustrator 29.5.0, SVG Export Plug-In . SVG Version: 2.1.0 Build 137)  -->
  <defs>
    <style>
      .st0 {
        fill: #f76900;
      }
    </style>
  </defs>
  <g>
    <path class="st0" d="M76.6,52l-1.6-7.7,2.1-.7c1.3,2.8,3.8,6.4,8.4,6.4s5.8-1.6,5.8-5.3c0-7-14.9-5.5-14.9-14.5s4-7.9,8.7-7.9,4.9,1.4,5.5,2.1l.5-1.4h1.8l1.8,6.9-2.1.7c-1.2-2.7-3.8-5.6-7.5-5.6s-4.7,1.9-4.7,4.3c0,6.4,14.9,4.8,14.9,14.4s-5.5,9-9.9,9-4.6-.8-6.3-2l-.5,1.4h-1.7Z"/>
    <path class="st0" d="M102.7,61.7c-1.4.6-2.6,0-2.9-1.1l4.4-8.6-6.7-14.9c-.5-1.2-.8-1.5-2.6-1.9v-1.7h8.1v1.7l-2.2.5,5.1,11.3,5-11.4-2.1-.5v-1.7h6.7v1.7c-1.1.3-1.9.7-2.5,1.9l-7,15.4-3.3,9.2Z"/>
    <path class="st0" d="M128.3,37.8c-.2-.7-.9-1.3-1.8-1.3-1.4,0-2.8,1.2-3.7,2.3v11l2.2.5v1.7h-7.5v-1.7l1.8-.4v-12.6l-2.2-.6v-1.5c2.2-.4,3.2-1.1,4.2-2.5l1.5.3-.2,4c1-1.8,2.7-4,5.3-4s2.6.8,2.6,2.4-1.1,2.5-2.3,2.5"/>
    <path class="st0" d="M142,47.3v-3.2l-4.3.8c-1.1.2-2.9.9-2.9,2.9s1,2.6,3,2.6,3.7-1.4,4.3-3.1M147.9,49.8l.4.8c-.1.3-1.4,1.9-3.4,1.9s-2.8-1.1-2.9-2.3c-1,1.5-3,2.4-5.4,2.4-3.7,0-5.4-2.4-5.4-4.4,0-3.1,1.9-4.8,5.4-5.4l5.3-1v-4c0-1.6-1.1-2.8-2.8-2.8s-2.5.7-3.2,1.5c.6,2.7-1.8,4-4.1,2.8,0-4,4-6.6,7.7-6.6s5.9,2.5,5.9,5.8v10.3c0,.7.4,1.2,1.1,1.2s1.1-.2,1.3-.4"/>
    <path class="st0" d="M165.4,36.4c0,1.3-1.3,2.1-2.5,2.2-.7-1.8-1.9-2.9-4.2-2.9-3.3,0-5.9,2.8-5.9,7.5s2.5,6.5,5.9,6.5,4.4-1.2,5.7-2.8l.9.6c-.7,2.9-3.3,5.4-8,5.4s-8.2-3-8.2-8.7,5.6-11.1,10.8-11.1,5.5,1.1,5.5,3.5"/>
    <path class="st0" d="M169.2,35.8l-2.2-.5v-1.7h5.7v13.1c0,1.9.9,2.9,2.6,2.9s3.7-.6,5.9-2.6v-11.2l-2.2-.5v-1.7h5.7v15.3h2.2v1.7c-1.5.4-3,1-4.2,1.9l-1.5-.3.2-3.2c-2.2,2.1-4.7,3.7-7.4,3.7s-4.9-1.9-4.9-4.4v-12.6Z"/>
    <path class="st0" d="M190.8,52h-1.1l-.9-5.4,1.3-.3c1.1,2.2,3.2,4.2,5.9,4.2s3.4-1.6,3.4-2.8c0-4.1-10-3.4-10-9.6s2.5-5.3,5.7-5.3,3.3.6,4.1,1.2l.2-.6h1.4l.8,4.7-1.3.3c-.6-1.3-2-3.6-4.8-3.6s-2.8,1.2-2.8,2.2c0,3.7,9.9,2.8,9.9,9.3s-3.2,6.1-6.7,6.1-4-1.1-4.8-2l-.4,1.4Z"/>
    <path class="st0" d="M208.6,41.2l8.6-1.1c0-3.5-1.8-4.9-3.6-4.9-3.3,0-4.8,2.8-5,6.1M208.5,43.5c.2,3.4,2.4,6.1,5.5,6.1s4.5-1.2,5.9-3.2l.9.6c-.7,3.4-3.6,5.8-7.9,5.8s-8.1-3.1-8.1-8.8,4.6-11,8.9-11,7.3,2.4,7.3,8l-.7,1.1-11.9,1.5Z"/>
    <path class="st0" d="M256,41.5c0,7.2-4.2,11.4-11.6,11.4s-11.6-4.2-11.6-11.4v-16.1l-2.3-.5v-1.9h8.7v1.9l-2.3.5v15.5c0,5.6,2.3,9,8.2,9s7.8-3.2,7.8-8.7v-15.8l-2.3-.5v-1.9h7.6v1.9l-2.3.5v16.1Z"/>
    <path class="st0" d="M259.2,52v-1.7l1.8-.4v-12.6l-2.2-.6v-1.5c2.2-.4,3.2-1.1,4.2-2.5l1.5.3-.2,3.7c2.2-2.1,4.7-3.7,7.4-3.7s4.9,1.9,4.9,4.4v12.6l2.2.5v1.7h-7.5v-1.7l1.8-.4v-11c0-1.9-.9-2.9-2.6-2.9s-3.7.6-5.9,2.6v11.2l2.2.5v1.7h-7.5Z"/>
    <path class="st0" d="M285.2,25.3c1.2,0,2.2,1,2.2,2.2s-1,2.2-2.2,2.2-2.2-1-2.2-2.2,1-2.2,2.2-2.2M281.2,52v-1.7l2-.5v-12.6l-2.2-.6v-1.5c2.2-.4,3.2-1.1,4.2-2.5l1.5.3v17l2,.5v1.7h-7.5Z"/>
    <path class="st0" d="M289.2,33.6h8.1v1.7l-2.2.5,5.1,11.3,5-11.4-2.1-.5v-1.7h6.7v1.7c-1.1.3-1.9.7-2.5,1.9l-7,15.4h-1.6l-6.9-15.3c-.6-1.2-.8-1.5-2.6-1.9v-1.7Z"/>
    <path class="st0" d="M313.4,41.2l8.6-1.1c0-3.5-1.8-4.9-3.6-4.9-3.3,0-4.8,2.8-5,6.1M313.3,43.5c.2,3.4,2.4,6.1,5.5,6.1s4.5-1.2,5.9-3.2l.9.6c-.7,3.4-3.6,5.8-7.9,5.8s-8.1-3.1-8.1-8.8,4.6-11,8.9-11,7.3,2.4,7.3,8l-.7,1.1-11.9,1.5Z"/>
    <path class="st0" d="M338.8,37.8c-.2-.7-.9-1.3-1.8-1.3-1.4,0-2.8,1.2-3.7,2.3v11l2.2.5v1.7h-7.5v-1.7l1.8-.4v-12.6l-2.2-.6v-1.5c2.2-.4,3.2-1.1,4.2-2.5l1.5.3-.2,4c1-1.8,2.7-4,5.3-4s2.6.8,2.6,2.4-1.1,2.5-2.3,2.5"/>
    <path class="st0" d="M343.9,52h-1.1l-.9-5.4,1.3-.3c1.1,2.2,3.2,4.2,5.9,4.2s3.4-1.6,3.4-2.8c0-4.1-10-3.4-10-9.6s2.5-5.3,5.7-5.3,3.3.6,4.1,1.2l.2-.6h1.4l.8,4.7-1.3.3c-.6-1.3-2-3.6-4.8-3.6s-2.8,1.2-2.8,2.2c0,3.7,9.9,2.8,9.9,9.3s-3.2,6.1-6.7,6.1-4-1.1-4.8-2l-.4,1.4Z"/>
    <path class="st0" d="M361.9,25.3c1.2,0,2.2,1,2.2,2.2s-1,2.2-2.2,2.2-2.2-1-2.2-2.2,1-2.2,2.2-2.2M358,52v-1.7l2-.5v-12.6l-2.2-.6v-1.5c2.2-.4,3.2-1.1,4.2-2.5l1.5.3v17l2,.5v1.7h-7.5Z"/>
    <path class="st0" d="M369.2,48.8v-13h-2.9v-1.7c2.4-.4,4-2.6,4.8-5l1.5.3v4.2h4.8v2.2h-4.8v12.3c0,1.4.6,2.1,1.8,2.1s1.6-.5,2.1-1.1l.9.7c-.5,1.4-2.1,2.9-4.2,2.9s-4.1-1.4-4.1-3.9"/>
    <path class="st0" d="M382.7,61.7c-1.4.6-2.6,0-2.9-1.1l4.4-8.6-6.7-14.9c-.5-1.2-1.6-1.4-2.8-1.4h-3.7v-2.2h12v1.7l-2.2.5,5.1,11.3,5-11.4-2.1-.5v-1.7h6.7v1.7c-1.1.3-1.9.7-2.5,1.9l-7,15.4-3.3,9.2Z"/>
  </g>
  <path class="st0" d="M35.8,23.7c1,0,17.6,0,18.5,0v-13.5c-.3-.3-10.3-9.9-10.6-10.2H10.3C10,.3.3,9.9,0,10.2v24.8c.3.3,9.6,9.7,9.9,10h26v14.4h-17.2v-8.2c-1,0-17.7,0-18.7,0v13.5c.3.3,10,9.9,10.3,10.2h33.4c.3-.3,10.3-9.9,10.6-10.2v-24.7c-.3-.3-9.6-9.7-9.9-10h-25.8v-14.4h17.2v8.2Z"/>
</svg>